<svg xmlns="http://www.w3.org/2000/svg" width="1720" height="1080" viewBox="0 0 1720 1080"><rect width="1720" height="1080" fill="#f3f4f6"/><rect x="0.5" y="0.5" width="1719" height="1079" fill="#ffffff" stroke="#d5dae0"/><rect x="0" y="0" width="1720" height="74" rx="0" fill="#ffffff" stroke="none" stroke-width="0"/>
<line x1="0" y1="74" x2="1720" y2="74" stroke="#d5dae0" stroke-width="1"/>
<rect x="36" y="22" width="30" height="30" rx="8" fill="#dde1e6" stroke="#b9bfc7" stroke-width="1.5"/>
<line x1="43" y1="40" x2="51" y2="31" stroke="#6b7280" stroke-width="2"/>
<line x1="51" y1="31" x2="59" y2="40" stroke="#6b7280" stroke-width="2"/>
<text x="80" y="36" font-family="Helvetica Neue, Arial, sans-serif" font-size="14" fill="#374151" font-weight="600" text-anchor="start" letter-spacing="0.18em">EATON HOME</text>
<text x="80" y="54" font-family="Helvetica Neue, Arial, sans-serif" font-size="11" fill="#9aa0a8" font-weight="400" text-anchor="start">Household OS — UX documentation</text>
<text x="860.0" y="45" font-family="Helvetica Neue, Arial, sans-serif" font-size="19" fill="#374151" font-weight="500" text-anchor="middle">Dashboard — the 30-second household briefing</text>
<text x="1684" y="36" font-family="Helvetica Neue, Arial, sans-serif" font-size="12" fill="#6b7280" font-weight="400" text-anchor="end">WF-02 · Lo-fi wireframe · v2</text>
<text x="1684" y="54" font-family="Helvetica Neue, Arial, sans-serif" font-size="11" fill="#9aa0a8" font-weight="400" text-anchor="end">M. Eaton · Parker, CO · 2026</text>
<rect x="60" y="130" width="64" height="860" rx="18" fill="#dde1e6" stroke="#b9bfc7" stroke-width="1.5"/>
<rect x="76" y="148" width="32" height="32" rx="9" fill="#c9ced5" stroke="none" stroke-width="0"/>
<rect x="77" y="220" width="30" height="30" rx="9" fill="#ffffff" stroke="#b9bfc7" stroke-width="1.2"/>
<rect x="77" y="266" width="30" height="30" rx="9" fill="none" stroke="#b9bfc7" stroke-width="1.2"/>
<rect x="77" y="312" width="30" height="30" rx="9" fill="none" stroke="#b9bfc7" stroke-width="1.2"/>
<rect x="77" y="358" width="30" height="30" rx="9" fill="none" stroke="#b9bfc7" stroke-width="1.2"/>
<rect x="77" y="404" width="30" height="30" rx="9" fill="none" stroke="#b9bfc7" stroke-width="1.2"/>
<circle cx="86" cy="916" r="8" fill="#c9ced5" stroke="none"/>
<circle cx="100" cy="916" r="8" fill="#eceef1" stroke="none"/>
<rect x="79" y="942" width="26" height="26" rx="8" fill="none" stroke="#b9bfc7" stroke-width="1.2"/>
<text x="152" y="156" font-family="Helvetica Neue, Arial, sans-serif" font-size="10.5" fill="#9aa0a8" font-weight="400" text-anchor="start" letter-spacing="0.2em">MONDAY, MARCH 2</text>
<rect x="152" y="174" width="330" height="24" rx="12.0" fill="#c9ced5" stroke="none" stroke-width="0"/>
<rect x="1032" y="160" width="210" height="40" rx="20.0" fill="#dde1e6" stroke="#b9bfc7" stroke-width="1.5"/>
<text x="1137.0" y="184.0" font-family="Helvetica Neue, Arial, sans-serif" font-size="11.5" fill="#374151" font-weight="500" text-anchor="middle">OPEN PRIORITY LIST</text>
<circle cx="502" cy="186" r="11" fill="#3d5afe"/>
<text x="502" y="190" font-family="Helvetica Neue, Arial, sans-serif" font-size="12" fill="#ffffff" font-weight="600" text-anchor="middle">1</text>
<rect x="152" y="230" width="258" height="104" rx="16" fill="#ffffff" stroke="#b9bfc7" stroke-width="1.5"/>
<rect x="166" y="244" width="26" height="26" rx="8" fill="#eceef1" stroke="#b9bfc7" stroke-width="1.5"/>
<text x="200" y="261" font-family="Helvetica Neue, Arial, sans-serif" font-size="10.5" fill="#9aa0a8" font-weight="400" text-anchor="start" letter-spacing="0.08em">ACTIVE PROJECTS</text>
<rect x="166" y="286" width="108.36" height="16" rx="8.0" fill="#c9ced5" stroke="none" stroke-width="0"/>
<rect x="166" y="312" width="141.9" height="7" rx="3.5" fill="#c9ced5" stroke="none" stroke-width="0"/>
<rect x="430" y="230" width="258" height="104" rx="16" fill="#ffffff" stroke="#b9bfc7" stroke-width="1.5"/>
<rect x="444" y="244" width="26" height="26" rx="8" fill="#eceef1" stroke="#b9bfc7" stroke-width="1.5"/>
<text x="478" y="261" font-family="Helvetica Neue, Arial, sans-serif" font-size="10.5" fill="#9aa0a8" font-weight="400" text-anchor="start" letter-spacing="0.08em">PLANNED SPEND</text>
<rect x="444" y="286" width="108.36" height="16" rx="8.0" fill="#c9ced5" stroke="none" stroke-width="0"/>
<rect x="444" y="312" width="141.9" height="7" rx="3.5" fill="#c9ced5" stroke="none" stroke-width="0"/>
<rect x="708" y="230" width="258" height="104" rx="16" fill="#ffffff" stroke="#b9bfc7" stroke-width="1.5"/>
<rect x="722" y="244" width="26" height="26" rx="8" fill="#eceef1" stroke="#b9bfc7" stroke-width="1.5"/>
<text x="756" y="261" font-family="Helvetica Neue, Arial, sans-serif" font-size="10.5" fill="#9aa0a8" font-weight="400" text-anchor="start" letter-spacing="0.08em">PROJECT FUND</text>
<rect x="722" y="286" width="108.36" height="16" rx="8.0" fill="#c9ced5" stroke="none" stroke-width="0"/>
<rect x="722" y="312" width="141.9" height="7" rx="3.5" fill="#c9ced5" stroke="none" stroke-width="0"/>
<rect x="986" y="230" width="258" height="104" rx="16" fill="#ffffff" stroke="#b9bfc7" stroke-width="1.5"/>
<rect x="1000" y="244" width="26" height="26" rx="8" fill="#eceef1" stroke="#b9bfc7" stroke-width="1.5"/>
<text x="1034" y="261" font-family="Helvetica Neue, Arial, sans-serif" font-size="10.5" fill="#9aa0a8" font-weight="400" text-anchor="start" letter-spacing="0.08em">CARE DUE SOON</text>
<rect x="1000" y="286" width="108.36" height="16" rx="8.0" fill="#c9ced5" stroke="none" stroke-width="0"/>
<rect x="1000" y="312" width="141.9" height="7" rx="3.5" fill="#c9ced5" stroke="none" stroke-width="0"/>
<circle cx="1242" cy="282" r="11" fill="#3d5afe"/>
<text x="1242" y="286" font-family="Helvetica Neue, Arial, sans-serif" font-size="12" fill="#ffffff" font-weight="600" text-anchor="middle">2</text>
<rect x="152" y="364" width="700" height="500" rx="22" fill="#f3f4f6" stroke="#b9bfc7" stroke-width="1.5"/>
<text x="176" y="400" font-family="Helvetica Neue, Arial, sans-serif" font-size="16" fill="#374151" font-weight="500" text-anchor="start">Top priorities</text>
<rect x="176" y="414" width="200" height="7" rx="3.5" fill="#c9ced5" stroke="none" stroke-width="0"/>
<circle cx="812" cy="400" r="16" fill="#eceef1" stroke="#b9bfc7"/>
<rect x="172" y="440" width="660" height="56" rx="14" fill="#ffffff" stroke="#b9bfc7" stroke-width="1.5"/>
<rect x="186" y="452" width="32" height="32" rx="9" fill="#dde1e6" stroke="#b9bfc7" stroke-width="1.5"/>
<text x="202" y="472" font-family="Helvetica Neue, Arial, sans-serif" font-size="12" fill="#374151" font-weight="600" text-anchor="middle">1</text>
<rect x="234" y="456" width="190" height="9" rx="4.5" fill="#c9ced5" stroke="none" stroke-width="0"/>
<rect x="234" y="474" width="110" height="6" rx="3.0" fill="#c9ced5" stroke="none" stroke-width="0"/>
<rect x="452" y="464" width="90" height="6" rx="3" fill="#dde1e6" stroke="#b9bfc7" stroke-width="1.5"/>
<rect x="452" y="464" width="62.99999999999999" height="6" rx="3" fill="#c9ced5" stroke="#b9bfc7" stroke-width="1.5"/>
<rect x="564" y="457" width="52" height="20" rx="10.0" fill="#eceef1" stroke="#b9bfc7" stroke-width="1.2"/>
<rect x="632" y="460" width="56" height="11" rx="5.5" fill="#c9ced5" stroke="none" stroke-width="0"/>
<rect x="708" y="457" width="96" height="20" rx="10.0" fill="#eceef1" stroke="#b9bfc7" stroke-width="1.2"/>
<rect x="172" y="508" width="660" height="56" rx="14" fill="#ffffff" stroke="#b9bfc7" stroke-width="1.5"/>
<rect x="186" y="520" width="32" height="32" rx="9" fill="#eceef1" stroke="#b9bfc7" stroke-width="1.5"/>
<text x="202" y="540" font-family="Helvetica Neue, Arial, sans-serif" font-size="12" fill="#374151" font-weight="600" text-anchor="middle">2</text>
<rect x="234" y="524" width="190" height="9" rx="4.5" fill="#c9ced5" stroke="none" stroke-width="0"/>
<rect x="234" y="542" width="110" height="6" rx="3.0" fill="#c9ced5" stroke="none" stroke-width="0"/>
<rect x="452" y="532" width="90" height="6" rx="3" fill="#dde1e6" stroke="#b9bfc7" stroke-width="1.5"/>
<rect x="452" y="532" width="54.0" height="6" rx="3" fill="#c9ced5" stroke="#b9bfc7" stroke-width="1.5"/>
<rect x="564" y="525" width="52" height="20" rx="10.0" fill="#eceef1" stroke="#b9bfc7" stroke-width="1.2"/>
<rect x="632" y="528" width="56" height="11" rx="5.5" fill="#c9ced5" stroke="none" stroke-width="0"/>
<rect x="708" y="525" width="96" height="20" rx="10.0" fill="#eceef1" stroke="#b9bfc7" stroke-width="1.2"/>
<rect x="172" y="576" width="660" height="56" rx="14" fill="#ffffff" stroke="#b9bfc7" stroke-width="1.5"/>
<rect x="186" y="588" width="32" height="32" rx="9" fill="#eceef1" stroke="#b9bfc7" stroke-width="1.5"/>
<text x="202" y="608" font-family="Helvetica Neue, Arial, sans-serif" font-size="12" fill="#374151" font-weight="600" text-anchor="middle">3</text>
<rect x="234" y="592" width="190" height="9" rx="4.5" fill="#c9ced5" stroke="none" stroke-width="0"/>
<rect x="234" y="610" width="110" height="6" rx="3.0" fill="#c9ced5" stroke="none" stroke-width="0"/>
<rect x="452" y="600" width="90" height="6" rx="3" fill="#dde1e6" stroke="#b9bfc7" stroke-width="1.5"/>
<rect x="452" y="600" width="44.99999999999999" height="6" rx="3" fill="#c9ced5" stroke="#b9bfc7" stroke-width="1.5"/>
<rect x="564" y="593" width="52" height="20" rx="10.0" fill="#eceef1" stroke="#b9bfc7" stroke-width="1.2"/>
<rect x="632" y="596" width="56" height="11" rx="5.5" fill="#c9ced5" stroke="none" stroke-width="0"/>
<rect x="708" y="593" width="96" height="20" rx="10.0" fill="#eceef1" stroke="#b9bfc7" stroke-width="1.2"/>
<rect x="172" y="644" width="660" height="56" rx="14" fill="#ffffff" stroke="#b9bfc7" stroke-width="1.5"/>
<rect x="186" y="656" width="32" height="32" rx="9" fill="#eceef1" stroke="#b9bfc7" stroke-width="1.5"/>
<text x="202" y="676" font-family="Helvetica Neue, Arial, sans-serif" font-size="12" fill="#374151" font-weight="600" text-anchor="middle">4</text>
<rect x="234" y="660" width="190" height="9" rx="4.5" fill="#c9ced5" stroke="none" stroke-width="0"/>
<rect x="234" y="678" width="110" height="6" rx="3.0" fill="#c9ced5" stroke="none" stroke-width="0"/>
<rect x="452" y="668" width="90" height="6" rx="3" fill="#dde1e6" stroke="#b9bfc7" stroke-width="1.5"/>
<rect x="452" y="668" width="35.99999999999999" height="6" rx="3" fill="#c9ced5" stroke="#b9bfc7" stroke-width="1.5"/>
<rect x="564" y="661" width="52" height="20" rx="10.0" fill="#eceef1" stroke="#b9bfc7" stroke-width="1.2"/>
<rect x="632" y="664" width="56" height="11" rx="5.5" fill="#c9ced5" stroke="none" stroke-width="0"/>
<rect x="708" y="661" width="96" height="20" rx="10.0" fill="#eceef1" stroke="#b9bfc7" stroke-width="1.2"/>
<rect x="172" y="712" width="660" height="56" rx="14" fill="#ffffff" stroke="#b9bfc7" stroke-width="1.5"/>
<rect x="186" y="724" width="32" height="32" rx="9" fill="#eceef1" stroke="#b9bfc7" stroke-width="1.5"/>
<text x="202" y="744" font-family="Helvetica Neue, Arial, sans-serif" font-size="12" fill="#374151" font-weight="600" text-anchor="middle">5</text>
<rect x="234" y="728" width="190" height="9" rx="4.5" fill="#c9ced5" stroke="none" stroke-width="0"/>
<rect x="234" y="746" width="110" height="6" rx="3.0" fill="#c9ced5" stroke="none" stroke-width="0"/>
<rect x="452" y="736" width="90" height="6" rx="3" fill="#dde1e6" stroke="#b9bfc7" stroke-width="1.5"/>
<rect x="452" y="736" width="26.999999999999993" height="6" rx="3" fill="#c9ced5" stroke="#b9bfc7" stroke-width="1.5"/>
<rect x="564" y="729" width="52" height="20" rx="10.0" fill="#eceef1" stroke="#b9bfc7" stroke-width="1.2"/>
<rect x="632" y="732" width="56" height="11" rx="5.5" fill="#c9ced5" stroke="none" stroke-width="0"/>
<rect x="708" y="729" width="96" height="20" rx="10.0" fill="#eceef1" stroke="#b9bfc7" stroke-width="1.2"/>
<rect x="172" y="780" width="660" height="56" rx="14" fill="#ffffff" stroke="#b9bfc7" stroke-width="1.5"/>
<rect x="186" y="792" width="32" height="32" rx="9" fill="#eceef1" stroke="#b9bfc7" stroke-width="1.5"/>
<text x="202" y="812" font-family="Helvetica Neue, Arial, sans-serif" font-size="12" fill="#374151" font-weight="600" text-anchor="middle">6</text>
<rect x="234" y="796" width="190" height="9" rx="4.5" fill="#c9ced5" stroke="none" stroke-width="0"/>
<rect x="234" y="814" width="110" height="6" rx="3.0" fill="#c9ced5" stroke="none" stroke-width="0"/>
<rect x="452" y="804" width="90" height="6" rx="3" fill="#dde1e6" stroke="#b9bfc7" stroke-width="1.5"/>
<rect x="452" y="804" width="17.999999999999996" height="6" rx="3" fill="#c9ced5" stroke="#b9bfc7" stroke-width="1.5"/>
<rect x="564" y="797" width="52" height="20" rx="10.0" fill="#eceef1" stroke="#b9bfc7" stroke-width="1.2"/>
<rect x="632" y="800" width="56" height="11" rx="5.5" fill="#c9ced5" stroke="none" stroke-width="0"/>
<rect x="708" y="797" width="96" height="20" rx="10.0" fill="#eceef1" stroke="#b9bfc7" stroke-width="1.2"/>
<circle cx="862" cy="468" r="11" fill="#3d5afe"/>
<text x="862" y="472" font-family="Helvetica Neue, Arial, sans-serif" font-size="12" fill="#ffffff" font-weight="600" text-anchor="middle">3</text>
<rect x="882" y="364" width="380" height="190" rx="22" fill="#dde1e6" stroke="#b9bfc7" stroke-width="1.5"/>
<text x="902" y="398" font-family="Helvetica Neue, Arial, sans-serif" font-size="10.5" fill="#6b7280" font-weight="400" text-anchor="start" letter-spacing="0.16em">3D HOUSE</text>
<line x1="972" y1="484" x2="1032" y2="438" stroke="#6b7280" stroke-width="2"/>
<line x1="1032" y1="438" x2="1092" y2="484" stroke="#6b7280" stroke-width="2"/>
<rect x="986" y="484" width="92" height="46" rx="0" fill="none" stroke="#6b7280" stroke-width="2"/>
<circle cx="1118" cy="460" r="5" fill="#3d5afe" stroke="none"/>
<circle cx="1012" cy="504" r="5" fill="#3d5afe" stroke="none"/>
<rect x="902" y="520" width="160" height="9" rx="4.5" fill="#c9ced5" stroke="none" stroke-width="0"/>
<circle cx="1232" cy="394" r="11" fill="#3d5afe"/>
<text x="1232" y="398" font-family="Helvetica Neue, Arial, sans-serif" font-size="12" fill="#ffffff" font-weight="600" text-anchor="middle">4</text>
<rect x="882" y="574" width="380" height="140" rx="22" fill="#f3f4f6" stroke="#b9bfc7" stroke-width="1.5"/>
<text x="902" y="604" font-family="Helvetica Neue, Arial, sans-serif" font-size="10.5" fill="#9aa0a8" font-weight="400" text-anchor="start" letter-spacing="0.16em">PRICE WATCH</text>
<rect x="902" y="622" width="220" height="9" rx="4.5" fill="#c9ced5" stroke="none" stroke-width="0"/>
<line x1="902" y1="654" x2="942" y2="662" stroke="#6b7280" stroke-width="2"/>
<line x1="942" y1="662" x2="982" y2="658" stroke="#6b7280" stroke-width="2"/>
<line x1="982" y1="658" x2="1022" y2="670" stroke="#6b7280" stroke-width="2"/>
<line x1="1022" y1="670" x2="1062" y2="666" stroke="#6b7280" stroke-width="2"/>
<line x1="1062" y1="666" x2="1102" y2="678" stroke="#6b7280" stroke-width="2"/>
<rect x="1142" y="660" width="96" height="18" rx="9.0" fill="#c9ced5" stroke="none" stroke-width="0"/>
<circle cx="1232" cy="604" r="11" fill="#3d5afe"/>
<text x="1232" y="608" font-family="Helvetica Neue, Arial, sans-serif" font-size="12" fill="#ffffff" font-weight="600" text-anchor="middle">5</text>
<rect x="882" y="734" width="380" height="130" rx="22" fill="#f3f4f6" stroke="#b9bfc7" stroke-width="1.5"/>
<text x="902" y="762" font-family="Helvetica Neue, Arial, sans-serif" font-size="10.5" fill="#9aa0a8" font-weight="400" text-anchor="start" letter-spacing="0.16em">HOME CARE UP NEXT</text>
<rect x="902" y="786" width="150" height="9" rx="4.5" fill="#c9ced5" stroke="none" stroke-width="0"/>
<rect x="1182" y="778" width="56" height="22" rx="11.0" fill="#eceef1" stroke="#b9bfc7" stroke-width="1.2"/>
<rect x="902" y="824" width="150" height="9" rx="4.5" fill="#c9ced5" stroke="none" stroke-width="0"/>
<rect x="1182" y="816" width="56" height="22" rx="11.0" fill="#eceef1" stroke="#b9bfc7" stroke-width="1.2"/>
<text x="1300" y="170" font-family="Helvetica Neue, Arial, sans-serif" font-size="11.5" fill="#374151" font-weight="600" text-anchor="start" letter-spacing="0.14em">ANNOTATIONS</text>
<circle cx="1311" cy="197" r="11" fill="#3d5afe"/>
<text x="1311" y="201" font-family="Helvetica Neue, Arial, sans-serif" font-size="12" fill="#ffffff" font-weight="600" text-anchor="middle">1</text>
<text x="1332" y="201" font-family="Helvetica Neue, Arial, sans-serif" font-size="12.5" fill="#374151" font-weight="600" text-anchor="start">Greeting, not chrome</text>
<text x="1332" y="220" font-family="Helvetica Neue, Arial, sans-serif" font-size="11.5" fill="#6b7280" font-weight="400" text-anchor="start">Date + salutation set a domestic, calm tone.</text>
<text x="1332" y="236" font-family="Helvetica Neue, Arial, sans-serif" font-size="11.5" fill="#6b7280" font-weight="400" text-anchor="start">The single CTA routes to the master list.</text>
<circle cx="1311" cy="267" r="11" fill="#3d5afe"/>
<text x="1311" y="271" font-family="Helvetica Neue, Arial, sans-serif" font-size="12" fill="#ffffff" font-weight="600" text-anchor="middle">2</text>
<text x="1332" y="271" font-family="Helvetica Neue, Arial, sans-serif" font-size="12.5" fill="#374151" font-weight="600" text-anchor="start">Four numbers, one glance</text>
<text x="1332" y="290" font-family="Helvetica Neue, Arial, sans-serif" font-size="11.5" fill="#6b7280" font-weight="400" text-anchor="start">Counts animate on load (GSAP count-up).</text>
<text x="1332" y="306" font-family="Helvetica Neue, Arial, sans-serif" font-size="11.5" fill="#6b7280" font-weight="400" text-anchor="start">Chosen KPIs answer: what&#x27;s moving,</text>
<text x="1332" y="322" font-family="Helvetica Neue, Arial, sans-serif" font-size="11.5" fill="#6b7280" font-weight="400" text-anchor="start">what&#x27;s left, what&#x27;s funded, what&#x27;s due.</text>
<circle cx="1311" cy="353" r="11" fill="#3d5afe"/>
<text x="1311" y="357" font-family="Helvetica Neue, Arial, sans-serif" font-size="12" fill="#ffffff" font-weight="600" text-anchor="middle">3</text>
<text x="1332" y="357" font-family="Helvetica Neue, Arial, sans-serif" font-size="12.5" fill="#374151" font-weight="600" text-anchor="start">Top-6 priority digest</text>
<text x="1332" y="376" font-family="Helvetica Neue, Arial, sans-serif" font-size="11.5" fill="#6b7280" font-weight="400" text-anchor="start">Rank chip, progress, price trend and status</text>
<text x="1332" y="392" font-family="Helvetica Neue, Arial, sans-serif" font-size="11.5" fill="#6b7280" font-weight="400" text-anchor="start">in one 56px row. Row = deep link.</text>
<circle cx="1311" cy="423" r="11" fill="#3d5afe"/>
<text x="1311" y="427" font-family="Helvetica Neue, Arial, sans-serif" font-size="12" fill="#ffffff" font-weight="600" text-anchor="middle">4</text>
<text x="1332" y="427" font-family="Helvetica Neue, Arial, sans-serif" font-size="12.5" fill="#374151" font-weight="600" text-anchor="start">Ambient 3D teaser</text>
<text x="1332" y="446" font-family="Helvetica Neue, Arial, sans-serif" font-size="11.5" fill="#6b7280" font-weight="400" text-anchor="start">Auto-rotating lightweight scene (no post-fx)</text>
<text x="1332" y="462" font-family="Helvetica Neue, Arial, sans-serif" font-size="11.5" fill="#6b7280" font-weight="400" text-anchor="start">invites exploration without a perf tax.</text>
<circle cx="1311" cy="493" r="11" fill="#3d5afe"/>
<text x="1311" y="497" font-family="Helvetica Neue, Arial, sans-serif" font-size="12" fill="#ffffff" font-weight="600" text-anchor="middle">5</text>
<text x="1332" y="497" font-family="Helvetica Neue, Arial, sans-serif" font-size="12.5" fill="#374151" font-weight="600" text-anchor="start">Price-watch signal</text>
<text x="1332" y="516" font-family="Helvetica Neue, Arial, sans-serif" font-size="11.5" fill="#6b7280" font-weight="400" text-anchor="start">Surfaces the tracked item with the deepest</text>
<text x="1332" y="532" font-family="Helvetica Neue, Arial, sans-serif" font-size="11.5" fill="#6b7280" font-weight="400" text-anchor="start">recent price drop — &#x27;buy now&#x27; nudge.</text></svg>